<?xml version="1.0" encoding="utf-8"?>
<!-- Generator: Adobe Illustrator 28.0.0, SVG Export Plug-In . SVG Version: 6.00 Build 0)  -->
<svg version="1.1" id="Layer_1" xmlns="http://www.w3.org/2000/svg" xmlns:xlink="http://www.w3.org/1999/xlink" x="0px" y="0px"
	 viewBox="0 0 60 75" style="enable-background:new 0 0 60 75;" xml:space="preserve">
<path d="M35.7,39.9v-1.6h10.4c0.6,0,1-0.4,1-1v-3.4c0-0.3-0.1-0.6-0.4-0.8l-11-9v-9.3c0-2.7-2.1-8.8-5.7-8.8s-5.7,6.1-5.7,8.8v9.3
	l-11,9c-0.2,0.2-0.4,0.5-0.4,0.8v3.4c0,0.6,0.4,1,1,1h10.4v1.6c0,0.6,0.4,1,1,1h0.2L24.4,43c-0.1,0.1-0.1,0.3-0.1,0.5v2.2
	c0,0.6,0.4,1,1,1H26c0.4,2.1,2.6,6,3.1,6.9c0.2,0.3,0.5,0.5,0.9,0.5s0.7-0.2,0.9-0.5c0.5-0.8,2.7-4.8,3.1-6.9h0.7c0.6,0,1-0.4,1-1
	v-2.2c0-0.2,0-0.3-0.1-0.5l-1.1-2.1h0.2C35.2,40.9,35.7,40.5,35.7,39.9z M45.1,34.4v1.9h-9.4v-9.6L45.1,34.4z M26.3,14.8
	c0-2.4,1.9-6.8,3.7-6.8c1.7,0,3.7,4.4,3.7,6.8v9.8v12.7v1.6h-0.9h-5.6h-0.9v-1.6V24.6V14.8z M14.9,36.3v-1.9l9.4-7.7v9.6H14.9z
	 M30,50.9c-0.9-1.7-1.7-3.4-1.9-4.3h3.9C31.7,47.6,30.9,49.3,30,50.9z M33.7,43.7v0.9H33h-6h-0.7v-0.9l1.5-2.8h4.4L33.7,43.7z"/>
<path d="M30,28.6c0.6,0,1-0.4,1-1V14c0-0.6-0.4-1-1-1s-1,0.4-1,1v13.5C29,28.1,29.4,28.6,30,28.6z"/>
<path d="M30,34.5c0.6,0,1-0.4,1-1v-2.3c0-0.6-0.4-1-1-1s-1,0.4-1,1v2.3C29,34.1,29.4,34.5,30,34.5z"/>
</svg>
