<?xml version="1.0" encoding="utf-8"?>
<!-- Generator: Adobe Illustrator 28.0.0, SVG Export Plug-In . SVG Version: 6.00 Build 0)  -->
<svg version="1.1" id="Layer_1" xmlns="http://www.w3.org/2000/svg" xmlns:xlink="http://www.w3.org/1999/xlink" x="0px" y="0px"
	 viewBox="0 0 100 125" style="enable-background:new 0 0 100 125;" xml:space="preserve">
<path d="M39.5,28c0.6,0,1-0.4,1-1c0-2.6,1-5,2.8-6.8c1.8-1.8,4.2-2.8,6.8-2.8c0,0,0,0,0,0c5.3,0,9.6,4.3,9.6,9.6c0,0.6,0.4,1,1,1
	c0,0,0,0,0,0c0.6,0,1-0.4,1-1c0-6.4-5.2-11.6-11.6-11.6c0,0,0,0,0,0c-3.1,0-6,1.2-8.2,3.4c-2.2,2.2-3.4,5.1-3.4,8.2
	C38.5,27.5,39,28,39.5,28C39.5,28,39.5,28,39.5,28z"/>
<path d="M50,10C50,10,50,10,50,10c-4.6,0-8.8,1.8-12,5c-3.2,3.2-5,7.5-5,12c0,0.6,0.4,1,1,1c0,0,0,0,0,0c0.6,0,1-0.4,1-1
	c0-4,1.5-7.8,4.4-10.6C42.2,13.5,46,12,50,12c0,0,0,0,0,0c8.3,0,15,6.7,15,15c0,0.6,0.4,1,1,1c0,0,0,0,0,0c0.6,0,1-0.4,1-1
	C67,17.6,59.4,10,50,10z"/>
<path d="M50.1,61.8c-2.3,0-4.1,1.8-4.1,4.1s1.8,4.1,4.1,4.1s4.1-1.8,4.1-4.1S52.4,61.8,50.1,61.8z M50.1,68c-1.2,0-2.1-0.9-2.1-2.1
	s0.9-2.1,2.1-2.1s2.1,0.9,2.1,2.1S51.3,68,50.1,68z"/>
<path d="M80.7,34.9H51.2v-1.8c1.3-0.2,2.5-0.8,3.4-1.7c1.2-1.2,1.8-2.7,1.8-4.4c0-1.7-0.7-3.2-1.8-4.4c-1.2-1.2-2.7-1.8-4.4-1.8
	c0,0,0,0,0,0c-1.7,0-3.2,0.7-4.4,1.8c-1.2,1.2-1.8,2.7-1.8,4.4c0,1.7,0.7,3.2,1.8,4.4c0.9,0.9,2.1,1.5,3.4,1.7v1.8H19.6
	c-0.6,0-1,0.4-1,1c0,14.3,9.6,26.8,23.3,30.5l-2.3,14H26.4c-0.6,0-1,0.4-1,1V89c0,0.6,0.4,1,1,1h47.4c0.6,0,1-0.4,1-1v-7.6
	c0-0.6-0.4-1-1-1H60.6l-2.3-14c13.8-3.7,23.4-16.2,23.4-30.5C81.7,35.4,81.3,34.9,80.7,34.9z"/>
<path d="M45.9,27c0-1.1,0.4-2.2,1.2-3s1.9-1.2,3-1.2c0,0,0,0,0,0c2.3,0,4.2,1.9,4.2,4.2c0,1.1-0.4,2.2-1.2,3c-0.8,0.8-1.9,1.2-3,1.2
	c0,0,0,0,0,0C47.8,31.2,45.9,29.3,45.9,27z"/>
<path d="M41.7,80.4l2.6-15.9c0.5-2.9,3-5,5.9-5s5.4,2.1,5.9,5l2.6,15.9C58.6,80.4,41.7,80.4,41.7,80.4z"/>
<path d="M58.1,64.4l0-0.2c-0.6-3.9-3.9-6.7-7.9-6.7s-7.2,2.8-7.9,6.7l0,0.2C29.8,61,21,49.8,20.6,36.9h59.1
	C79.3,49.9,70.5,61,58.1,64.4z"/>
</svg>
