0
SECTION
2
HEADER
9
$INSUNITS
70
1
9
$ACADVER
1
AC1014
9
$HANDSEED
5
FFFF
0
ENDSEC
0
SECTION
2
TABLES
0
TABLE
2
VPORT
5
8
100
AcDbSymbolTable
0
ENDTAB
0
TABLE
2
LTYPE
5
5
100
AcDbSymbolTable
0
LTYPE
5
14
100
AcDbSymbolTableRecord
100
AcDbLinetypeTableRecord
2
BYBLOCK
70
0
0
LTYPE
5
15
100
AcDbSymbolTableRecord
100
AcDbLinetypeTableRecord
2
BYLAYER
70
0
0
ENDTAB
0
TABLE
2
LAYER
5
2
100
AcDbSymbolTable
70
2
0
LAYER
5
50
100
AcDbSymbolTableRecord
100
AcDbLayerTableRecord
2
0
70
0
6
CONTINUOUS
0
ENDTAB
0
TABLE
2
STYLE
5
3
100
AcDbSymbolTable
70
1
0
STYLE
5
11
100
AcDbSymbolTableRecord
100
AcDbTextStyleTableRecord
2
STANDARD
70
0
0
ENDTAB
0
TABLE
2
VIEW
5
6
100
AcDbSymbolTable
70
0
0
ENDTAB
0
TABLE
2
UCS
5
7
100
AcDbSymbolTable
70
0
0
ENDTAB
0
TABLE
2
APPID
5
9
100
AcDbSymbolTable
70
2
0
APPID
5
12
100
AcDbSymbolTableRecord
100
AcDbRegAppTableRecord
2
ACAD
70
0
0
ENDTAB
0
TABLE
2
DIMSTYLE
5
A
100
AcDbSymbolTable
70
1
0
ENDTAB
0
TABLE
2
BLOCK_RECORD
5
1
100
AcDbSymbolTable
70
1
0
BLOCK_RECORD
5
1F
100
AcDbSymbolTableRecord
100
AcDbBlockTableRecord
2
*MODEL_SPACE
0
BLOCK_RECORD
5
1B
100
AcDbSymbolTableRecord
100
AcDbBlockTableRecord
2
*PAPER_SPACE
0
ENDTAB
0
ENDSEC
0
SECTION
2
BLOCKS
0
BLOCK
5
20
100
AcDbEntity
100
AcDbBlockBegin
2
*MODEL_SPACE
0
ENDBLK
5
21
100
AcDbEntity
100
AcDbBlockEnd
0
BLOCK
5
1C
100
AcDbEntity
100
AcDbBlockBegin
2
*PAPER_SPACE
0
ENDBLK
5
1D
100
AcDbEntity
100
AcDbBlockEnd
0
ENDSEC
0
SECTION
2
ENTITIES
0
LWPOLYLINE
5
100
100
AcDbEntity
8
0
100
AcDbPolyline
90
4
70
1
43
0.0
10
-0.5500000832742431
20
-0.31000000737197031
42
0.99999999999999989
10
-0.67000008327424299
20
-0.31000000737197031
10
-0.6700000832742431
20
-1.3200000031914323
42
0.99999999999999989
10
-0.55000008327424299
20
-1.3200000031914323
0
LWPOLYLINE
5
101
100
AcDbEntity
8
0
100
AcDbPolyline
90
4
70
1
43
0.0
10
0.66999991672575721
20
-0.31000000737197031
42
0.99999999999999989
10
0.54999991672575732
20
-0.31000000737197031
10
0.54999991672575721
20
-1.3200000031914323
42
0.99999999999999989
10
0.66999991672575732
20
-1.3200000031914323
0
LWPOLYLINE
5
102
100
AcDbEntity
8
0
100
AcDbPolyline
90
4
70
1
43
0.0
10
-0.5500000832742431
20
0.90999999262802944
42
0.99999999999999989
10
-0.67000008327424299
20
0.90999999262802944
10
-0.6700000832742431
20
-0.10000000319143242
42
0.99999999999999989
10
-0.55000008327424299
20
-0.10000000319143242
0
LWPOLYLINE
5
103
100
AcDbEntity
8
0
100
AcDbPolyline
90
4
70
1
43
0.0
10
0.66999991672575721
20
0.90999999262802944
42
0.99999999999999989
10
0.54999991672575732
20
0.90999999262802944
10
0.54999991672575721
20
-0.1000000031914325
42
0.99999999999999989
10
0.66999991672575732
20
-0.10000000319143242
0
CIRCLE
5
104
100
AcDbEntity
8
0
100
AcDbCircle
10
0.74999158114404629
20
-4.5000127557118148
30
0
40
0.062499999999999743
210
-0
220
0
230
1
0
CIRCLE
5
105
100
AcDbEntity
8
0
100
AcDbCircle
10
-0.75000841885595471
20
-3.5000127557118139
30
0
40
0.062499999999999833
210
-0
220
0
230
1
0
CIRCLE
5
106
100
AcDbEntity
8
0
100
AcDbCircle
10
-8.4188559542374658e-06
20
-3.5000127557118139
30
0
40
0.06249999999999982
210
1.2621774483536189e-29
220
-7.074749280333369e-74
230
1
0
CIRCLE
5
107
100
AcDbEntity
8
0
100
AcDbCircle
10
-8.4188559542374658e-06
20
-4.5000127557118148
30
0
40
0.06249999999999982
210
1.2621774483536189e-29
220
-7.074749280333369e-74
230
1
0
CIRCLE
5
108
100
AcDbEntity
8
0
100
AcDbCircle
10
-0.75000841885595471
20
-4.5000127557118148
30
0
40
0.062499999999999833
210
-0
220
0
230
1
0
CIRCLE
5
109
100
AcDbEntity
8
0
100
AcDbCircle
10
0.74999158114404629
20
-3.5000127557118139
30
0
40
0.062499999999999743
210
-0
220
0
230
1
0
CIRCLE
5
110
100
AcDbEntity
8
0
100
AcDbCircle
10
0.56568537755961323
20
2.8999999345562304
30
0
40
0.062500000000000167
210
-1.2621774483536192e-29
220
2.4651903288156619e-32
230
1
0
CIRCLE
5
111
100
AcDbEntity
8
0
100
AcDbCircle
10
0.3999999202149454
20
2.4999999872342795
30
0
40
0.062500000000000167
210
-1.2621774483536192e-29
220
2.4651903288156619e-32
230
1
0
CIRCLE
5
112
100
AcDbEntity
8
0
100
AcDbCircle
10
6.5444456546042185e-08
20
3.4656853775589203
30
0
40
0.062499999999999833
210
-0
220
0
230
1
0
CIRCLE
5
113
100
AcDbEntity
8
0
100
AcDbCircle
10
-0.40000001276503006
20
2.5000000797857425
30
0
40
0.062500000000000097
210
1.2621774483536189e-29
220
-1.0612123920500054e-73
230
1
0
CIRCLE
5
114
100
AcDbEntity
8
0
100
AcDbCircle
10
0.40000001276640862
20
3.2999999202142529
30
0
40
0.062499999999999833
210
-0
220
0
230
1
0
CIRCLE
5
115
100
AcDbEntity
8
0
100
AcDbCircle
10
-0.39999992021356678
20
3.3000000127657159
30
0
40
0.062499999999999833
210
-0
220
0
230
1
0
CIRCLE
5
116
100
AcDbEntity
8
0
100
AcDbCircle
10
-0.56568537755823456
20
2.9000000654437654
30
0
40
0.062499999999999833
210
-0
220
0
230
1
0
CIRCLE
5
117
100
AcDbEntity
8
0
100
AcDbCircle
10
-6.5443078035417377e-08
20
2.3343146224410742
30
0
40
0.062500000000000167
210
-1.2621774483536192e-29
220
2.4651903288156619e-32
230
1
0
LWPOLYLINE
5
118
100
AcDbEntity
8
0
100
AcDbPolyline
90
4
70
1
43
0.0
10
0.46000000000068941
20
0.29999999999999749
42
0.99999999999999989
10
-0.45999999999931096
20
0.2999999999999971
10
-0.45999999999931096
20
-0.71000000000000263
42
0.99999999999999989
10
0.46000000000068947
20
-0.71000000000000252
0
LWPOLYLINE
5
119
100
AcDbEntity
8
0
100
AcDbPolyline
90
14
70
1
43
0.0
10
-1.2800000221677357
20
2.5680347966331429
10
-1.2224041802394783
20
2.5680347927869303
10
-1.2224042846187999
20
1.0049869302035135
10
-1.2800001265470637
20
1.0049869340497266
10
-1.2800005342341456
20
-5.0999999145224084
10
-0.98000053423414624
20
-5.0999999345562168
10
0.97995370291508099
20
-5.1095257621412884
10
1.2799537029150811
20
-5.1095257621412884
10
1.2799537029150809
20
2.5766070381502639
42
0.22072344171895167
10
1.0850448986855545
20
2.9966192316474221
42
-0.13188759741120695
10
0.92244011278907634
20
3.2309142461710385
42
0.70088258600485898
10
-0.9199510090870473
20
3.2377723210662093
42
-0.13118243558513909
10
-1.0831250329503965
20
3.0056718143459413
42
0.22194865586698626
10
-1.2800000211012397
20
2.5840052457967517
0
CIRCLE
5
120
100
AcDbEntity
8
0
100
AcDbCircle
10
-0.69609984316315598
20
1.1142499750166615
30
0
40
0.070815024777761429
210
-1.2621774483536189e-29
220
2.4651903288156619e-32
230
1
0
CIRCLE
5
121
100
AcDbEntity
8
0
100
AcDbCircle
10
-1.0993494948072762
20
1.6852917233663629
30
0
40
0.070421598545274897
210
-1.2621774483536192e-29
220
2.4651903288156624e-32
230
1
0
CIRCLE
5
122
100
AcDbEntity
8
0
100
AcDbCircle
10
-1.0998306459697114
20
2.4407982717188168
30
0
40
0.070743629101163455
210
-1.2621774483536189e-29
220
7.074749280333369e-74
230
1
0
CIRCLE
5
123
100
AcDbEntity
8
0
100
AcDbCircle
10
-1.1208146832528643
20
1.1138139547064509
30
0
40
0.071065690793930034
210
1.3817869688151111e-76
220
2.4651903288156619e-32
230
1
0
LWPOLYLINE
5
124
100
AcDbEntity
8
0
100
AcDbPolyline
90
10
70
1
43
0.0
10
-0.98000005663209033
20
1.5426239747494042
10
-0.97999998815582123
20
2.5680347966331429
10
-0.66094194216887581
20
2.5670786305705722
10
-0.66094195615976403
20
2.3575694361722976
10
-0.76044501641728635
20
2.3575694428170477
10
-0.76044507083881474
20
1.5426239868269425
10
-0.67141328975501247
20
1.5426239808814579
10
-0.67141330881392192
20
1.2572227378329393
10
-1.163651267539088
20
1.2572227707042705
10
-1.1636512484801802
20
1.5426239870135114
0
ENDSEC
0
SECTION
2
OBJECTS
0
DICTIONARY
5
C
100
AcDbDictionary
3
ACAD_GROUP
350
D
3
ACAD_MLINESTYLE
350
17
0
DICTIONARY
5
D
100
AcDbDictionary
0
DICTIONARY
5
1A
330
C
100
AcDbDictionary
0
DICTIONARY
5
17
100
AcDbDictionary
0
ENDSEC
0
EOF
