0
SECTION
2
HEADER
9
$INSUNITS
70
1
9
$ACADVER
1
AC1014
9
$HANDSEED
5
FFFF
0
ENDSEC
0
SECTION
2
TABLES
0
TABLE
2
VPORT
5
8
100
AcDbSymbolTable
0
ENDTAB
0
TABLE
2
LTYPE
5
5
100
AcDbSymbolTable
0
LTYPE
5
14
100
AcDbSymbolTableRecord
100
AcDbLinetypeTableRecord
2
BYBLOCK
70
0
0
LTYPE
5
15
100
AcDbSymbolTableRecord
100
AcDbLinetypeTableRecord
2
BYLAYER
70
0
0
ENDTAB
0
TABLE
2
LAYER
5
2
100
AcDbSymbolTable
70
2
0
LAYER
5
50
100
AcDbSymbolTableRecord
100
AcDbLayerTableRecord
2
0
70
0
6
CONTINUOUS
0
ENDTAB
0
TABLE
2
STYLE
5
3
100
AcDbSymbolTable
70
1
0
STYLE
5
11
100
AcDbSymbolTableRecord
100
AcDbTextStyleTableRecord
2
STANDARD
70
0
0
ENDTAB
0
TABLE
2
VIEW
5
6
100
AcDbSymbolTable
70
0
0
ENDTAB
0
TABLE
2
UCS
5
7
100
AcDbSymbolTable
70
0
0
ENDTAB
0
TABLE
2
APPID
5
9
100
AcDbSymbolTable
70
2
0
APPID
5
12
100
AcDbSymbolTableRecord
100
AcDbRegAppTableRecord
2
ACAD
70
0
0
ENDTAB
0
TABLE
2
DIMSTYLE
5
A
100
AcDbSymbolTable
70
1
0
ENDTAB
0
TABLE
2
BLOCK_RECORD
5
1
100
AcDbSymbolTable
70
1
0
BLOCK_RECORD
5
1F
100
AcDbSymbolTableRecord
100
AcDbBlockTableRecord
2
*MODEL_SPACE
0
BLOCK_RECORD
5
1B
100
AcDbSymbolTableRecord
100
AcDbBlockTableRecord
2
*PAPER_SPACE
0
ENDTAB
0
ENDSEC
0
SECTION
2
BLOCKS
0
BLOCK
5
20
100
AcDbEntity
100
AcDbBlockBegin
2
*MODEL_SPACE
0
ENDBLK
5
21
100
AcDbEntity
100
AcDbBlockEnd
0
BLOCK
5
1C
100
AcDbEntity
100
AcDbBlockBegin
2
*PAPER_SPACE
0
ENDBLK
5
1D
100
AcDbEntity
100
AcDbBlockEnd
0
ENDSEC
0
SECTION
2
ENTITIES
0
LWPOLYLINE
5
100
100
AcDbEntity
8
0
100
AcDbPolyline
90
4
70
1
43
0.0
10
-0.55000008327493211
20
-0.31000000737196765
42
0.99999999999999989
10
-0.67000008327493199
20
-0.3100000073719677
10
-0.6700000832749321
20
-1.3200000031914298
42
0.99999999999999989
10
-0.55000008327493211
20
-1.3200000031914298
0
LWPOLYLINE
5
101
100
AcDbEntity
8
0
100
AcDbPolyline
90
4
70
1
43
0.0
10
0.66999991672506765
20
-0.31000000737196765
42
0.99999999999999989
10
0.54999991672506776
20
-0.3100000073719677
10
0.54999991672506765
20
-1.3200000031914298
42
0.99999999999999989
10
0.66999991672506776
20
-1.3200000031914298
0
LWPOLYLINE
5
102
100
AcDbEntity
8
0
100
AcDbPolyline
90
4
70
1
43
0.0
10
-0.55000008327493211
20
0.90999999262803211
42
0.99999999999999989
10
-0.67000008327493199
20
0.90999999262803177
10
-0.6700000832749321
20
-0.10000000319142972
42
0.99999999999999989
10
-0.55000008327493211
20
-0.10000000319142979
0
LWPOLYLINE
5
103
100
AcDbEntity
8
0
100
AcDbPolyline
90
4
70
1
43
0.0
10
0.66999991672506765
20
0.90999999262803211
42
0.99999999999999989
10
0.54999991672506776
20
0.90999999262803177
10
0.54999991672506765
20
-0.10000000319142983
42
0.99999999999999989
10
0.66999991672506776
20
-0.10000000319142979
0
CIRCLE
5
104
100
AcDbEntity
8
0
100
AcDbCircle
10
0.74999158114335662
20
-4.5000127557118113
30
0
40
0.062499999999999709
210
-3.3735033418337674e-80
220
-4.9066784502373196e-128
230
1
0
CIRCLE
5
105
100
AcDbEntity
8
0
100
AcDbCircle
10
-0.7500084188566436
20
-3.5000127557118113
30
0
40
0.062499999999999799
210
-0
220
0
230
1
0
CIRCLE
5
106
100
AcDbEntity
8
0
100
AcDbCircle
10
-8.4188566434927745e-06
20
-3.5000127557118113
30
0
40
0.062499999999999785
210
-6.7470066836675349e-80
220
-1.3084475867299516e-127
230
1
0
CIRCLE
5
107
100
AcDbEntity
8
0
100
AcDbCircle
10
-8.4188566434927745e-06
20
-4.5000127557118113
30
0
40
0.062499999999999785
210
-3.3735033418337674e-80
220
-4.9066784502373186e-128
230
1
0
CIRCLE
5
108
100
AcDbEntity
8
0
100
AcDbCircle
10
-0.7500084188566436
20
-4.5000127557118113
30
0
40
0.062499999999999799
210
3.3735033418337674e-80
220
4.9066784502373196e-128
230
1
0
CIRCLE
5
109
100
AcDbEntity
8
0
100
AcDbCircle
10
0.74999158114335662
20
-3.5000127557118113
30
0
40
0.062499999999999709
210
6.7470066836675349e-80
220
1.3084475867299518e-127
230
1
0
LWPOLYLINE
5
110
100
AcDbEntity
8
0
100
AcDbPolyline
90
22
70
1
43
0.0
10
-1.2224042846194885
20
1.0049869302035161
10
-1.2800001265477521
20
1.0049869340497293
10
-1.2800005342348344
20
-5.0999999145224066
10
-0.98000053423483502
20
-5.0999999345562133
10
0.97995370291439143
20
-5.1095257621412857
10
1.2799537029143915
20
-5.1095257621412857
10
1.279953702914391
20
2.5766070381502666
42
0.22072344171895147
10
1.0850448986848649
20
2.9966192316474252
42
-0.13188759741120673
10
0.92244011278838633
20
3.2309142461710416
42
0.70088258600485853
10
-0.91995100908773586
20
3.2377723210662119
42
-0.13118243558514076
10
-1.0831250329510855
20
3.0056718143459444
42
0.22194865586698645
10
-1.2800000211019285
20
2.5840052457967539
10
-1.2800000221684247
20
2.5680347966331456
10
-1.2224041802401668
20
2.5680347927869325
10
-1.2224042420134373
20
1.6429992885002469
10
-0.62962470329650611
20
1.6429993280856796
10
-0.62962471556061339
20
1.8266505199337695
10
-0.34422349925137269
20
1.8266505389926768
10
-0.34422346638004164
20
1.3344125802675113
10
-0.62962470942856008
20
1.3344125612086017
10
-0.62962471537404452
20
1.4234443422924044
10
-1.2224042566751767
20
1.4234443027069714
0
CIRCLE
5
111
100
AcDbEntity
8
0
100
AcDbCircle
10
-0.77229245191346485
20
1.7623487662608652
30
0
40
0.070421598545274702
210
0
220
-0
230
1
0
CIRCLE
5
112
100
AcDbEntity
8
0
100
AcDbCircle
10
-0.20081468325355306
20
1.7838139547064535
30
0
40
0.071065690793930006
210
0
220
2.4651903288156619e-32
230
1
0
CIRCLE
5
113
100
AcDbEntity
8
0
100
AcDbCircle
10
-0.20125070356376368
20
1.3590991146167453
30
0
40
0.070815024777761471
210
0
220
2.4651903288156619e-32
230
1
0
LWPOLYLINE
5
114
100
AcDbEntity
8
0
100
AcDbPolyline
90
4
70
1
43
0.0
10
0.45999999999999985
20
0.3000000000000001
42
0.99999999999999989
10
-0.45999999999999985
20
0.29999999999999982
10
-0.46000000000000002
20
-0.70999999999999985
42
0.99999999999999989
10
0.46000000000000002
20
-0.70999999999999974
0
CIRCLE
5
115
100
AcDbEntity
8
0
100
AcDbCircle
10
-6.5443767290729741e-08
20
2.3343146224410765
30
0
40
0.062500000000000153
210
0
220
2.4651903288156619e-32
230
1
0
CIRCLE
5
116
100
AcDbEntity
8
0
100
AcDbCircle
10
-0.56568537755892367
20
2.9000000654437681
30
0
40
0.062499999999999799
210
0
220
0
230
1
0
CIRCLE
5
117
100
AcDbEntity
8
0
100
AcDbCircle
10
-0.3999999202142559
20
3.300000012765719
30
0
40
0.062499999999999799
210
0
220
0
230
1
0
CIRCLE
5
118
100
AcDbEntity
8
0
100
AcDbCircle
10
0.40000001276571917
20
3.299999920214256
30
0
40
0.062499999999999799
210
0
220
0
230
1
0
CIRCLE
5
119
100
AcDbEntity
8
0
100
AcDbCircle
10
-0.40000001276571917
20
2.5000000797857447
30
0
40
0.062500000000000056
210
0
220
0
230
1
0
CIRCLE
5
120
100
AcDbEntity
8
0
100
AcDbCircle
10
6.5443767290729741e-08
20
3.4656853775589234
30
0
40
0.062499999999999799
210
0
220
0
230
1
0
CIRCLE
5
121
100
AcDbEntity
8
0
100
AcDbCircle
10
0.3999999202142559
20
2.4999999872342817
30
0
40
0.062500000000000153
210
0
220
2.4651903288156619e-32
230
1
0
CIRCLE
5
122
100
AcDbEntity
8
0
100
AcDbCircle
10
0.56568537755892367
20
2.8999999345562331
30
0
40
0.062500000000000153
210
0
220
2.4651903288156619e-32
230
1
0
ENDSEC
0
SECTION
2
OBJECTS
0
DICTIONARY
5
C
100
AcDbDictionary
3
ACAD_GROUP
350
D
3
ACAD_MLINESTYLE
350
17
0
DICTIONARY
5
D
100
AcDbDictionary
0
DICTIONARY
5
1A
330
C
100
AcDbDictionary
0
DICTIONARY
5
17
100
AcDbDictionary
0
ENDSEC
0
EOF
