0
SECTION
2
HEADER
9
$INSUNITS
70
1
9
$ACADVER
1
AC1014
9
$HANDSEED
5
FFFF
0
ENDSEC
0
SECTION
2
TABLES
0
TABLE
2
VPORT
5
8
100
AcDbSymbolTable
0
ENDTAB
0
TABLE
2
LTYPE
5
5
100
AcDbSymbolTable
0
LTYPE
5
14
100
AcDbSymbolTableRecord
100
AcDbLinetypeTableRecord
2
BYBLOCK
70
0
0
LTYPE
5
15
100
AcDbSymbolTableRecord
100
AcDbLinetypeTableRecord
2
BYLAYER
70
0
0
ENDTAB
0
TABLE
2
LAYER
5
2
100
AcDbSymbolTable
70
2
0
LAYER
5
50
100
AcDbSymbolTableRecord
100
AcDbLayerTableRecord
2
0
70
0
6
CONTINUOUS
0
ENDTAB
0
TABLE
2
STYLE
5
3
100
AcDbSymbolTable
70
1
0
STYLE
5
11
100
AcDbSymbolTableRecord
100
AcDbTextStyleTableRecord
2
STANDARD
70
0
0
ENDTAB
0
TABLE
2
VIEW
5
6
100
AcDbSymbolTable
70
0
0
ENDTAB
0
TABLE
2
UCS
5
7
100
AcDbSymbolTable
70
0
0
ENDTAB
0
TABLE
2
APPID
5
9
100
AcDbSymbolTable
70
2
0
APPID
5
12
100
AcDbSymbolTableRecord
100
AcDbRegAppTableRecord
2
ACAD
70
0
0
ENDTAB
0
TABLE
2
DIMSTYLE
5
A
100
AcDbSymbolTable
70
1
0
ENDTAB
0
TABLE
2
BLOCK_RECORD
5
1
100
AcDbSymbolTable
70
1
0
BLOCK_RECORD
5
1F
100
AcDbSymbolTableRecord
100
AcDbBlockTableRecord
2
*MODEL_SPACE
0
BLOCK_RECORD
5
1B
100
AcDbSymbolTableRecord
100
AcDbBlockTableRecord
2
*PAPER_SPACE
0
ENDTAB
0
ENDSEC
0
SECTION
2
BLOCKS
0
BLOCK
5
20
100
AcDbEntity
100
AcDbBlockBegin
2
*MODEL_SPACE
0
ENDBLK
5
21
100
AcDbEntity
100
AcDbBlockEnd
0
BLOCK
5
1C
100
AcDbEntity
100
AcDbBlockBegin
2
*PAPER_SPACE
0
ENDBLK
5
1D
100
AcDbEntity
100
AcDbBlockEnd
0
ENDSEC
0
SECTION
2
ENTITIES
0
CIRCLE
5
100
100
AcDbEntity
8
0
100
AcDbCircle
10
-3.6005560763626887
20
4.3974250430492949
30
0
40
0.059055118110236358
210
-1.0955168995723188e-46
220
3.1747217733840266e-63
230
1
0
CIRCLE
5
101
100
AcDbEntity
8
0
100
AcDbCircle
10
-1.5966190684886685
20
3.8068738619469582
30
0
40
0.059055118110236005
210
-1.0955168995723186e-46
220
3.1747217733840261e-63
230
1
0
CIRCLE
5
102
100
AcDbEntity
8
0
100
AcDbCircle
10
-3.639926155102823
20
2.4997872477737069
30
6.9935308637805131e-16
40
0.059055118110236358
210
-1.0955168995723188e-46
220
3.1747217733840266e-63
230
1
0
CIRCLE
5
103
100
AcDbEntity
8
0
100
AcDbCircle
10
-1.596619068488655
20
2.6769526021044401
30
0
40
0.059055118110236005
210
-1.0955168995723186e-46
220
3.1747217733840261e-63
230
1
0
CIRCLE
5
104
100
AcDbEntity
8
0
100
AcDbCircle
10
-1.6460394391218935
20
4.9844211458230578
30
0
40
0.069999999999999882
210
-1.4490025193718789e-32
220
-1.9943808703806344e-32
230
1
0
CIRCLE
5
105
100
AcDbEntity
8
0
100
AcDbCircle
10
-2.663347759317193
20
6.3846259252847721
30
6.9935308637805131e-16
40
0.069999999999999882
210
-3.7562329675317721e-31
220
1.09621821048533e-30
230
1
0
CIRCLE
5
106
100
AcDbEntity
8
0
100
AcDbCircle
10
1.6460394391062256
20
9.515578994581265
30
0
40
0.069999999999999882
210
-3.4433833897525138e-32
220
-5.4537835100875601e-33
230
1
0
CIRCLE
5
107
100
AcDbEntity
8
0
100
AcDbCircle
10
2.6633477593015282
20
8.1153742151195516
30
0
40
0.069999999999999882
210
-3.5803928180721793e-31
220
1.1019316032801262e-30
230
1
0
LWPOLYLINE
5
108
100
AcDbEntity
8
0
100
AcDbPolyline
90
8
70
1
43
0.0
10
-0.5321245749438317
20
15.56455012259133
42
0.41421356237309509
10
-4.2821245749438308
20
11.814550122591331
10
-4.2821245749438317
20
2.6845501225913302
42
0.4142135623730952
10
-0.53212457494383159
20
-1.0654498774086709
10
0.52787542505616747
20
-1.0654498774086703
42
0.41421356237309515
10
4.2778754250561688
20
2.6845501225913293
10
4.277875425056167
20
11.814550122591328
42
0.41421356237309515
10
0.52787542505616791
20
15.56455012259133
0
CIRCLE
5
109
100
AcDbEntity
8
0
100
AcDbCircle
10
-2.0000000000078337
20
0.25000000796925853
30
0
40
0.072499999999999926
210
3.0636491585041945e-48
220
2.4651903288156619e-32
230
1
0
CIRCLE
5
110
100
AcDbEntity
8
0
100
AcDbCircle
10
2.000000063820762
20
0.25000000796925859
30
0
40
0.072499999999999926
210
3.0636491585041945e-48
220
2.4651903288156619e-32
230
1
0
CIRCLE
5
111
100
AcDbEntity
8
0
100
AcDbCircle
10
-1.0000000000078337
20
1.6790000079692584
30
0
40
0.072500000000000092
210
1.0533806817954058e-48
220
-3.0526143297867957e-65
230
1
0
CIRCLE
5
112
100
AcDbEntity
8
0
100
AcDbCircle
10
-7.8336885179669464e-12
20
1.6790000079692584
30
0
40
0.072500000000000064
210
1.5559478009726029e-48
220
-4.5090142962881296e-65
230
1
0
CIRCLE
5
113
100
AcDbEntity
8
0
100
AcDbCircle
10
1.0000000319064641
20
0.25000000796925853
30
0
40
0.072499999999999926
210
1.0533806817954058e-48
220
2.4651903288156619e-32
230
1
0
CIRCLE
5
114
100
AcDbEntity
8
0
100
AcDbCircle
10
-1.0000000000078337
20
0.25000000796925853
30
0
40
0.072499999999999926
210
1.0533806817954058e-48
220
2.4651903288156619e-32
230
1
0
CIRCLE
5
115
100
AcDbEntity
8
0
100
AcDbCircle
10
2.000000063820762
20
1.6790000079692584
30
-6.9935308637805131e-16
40
0.072500000000000273
210
3.0636491585041939e-48
220
-8.8782141957921297e-65
230
1
0
CIRCLE
5
116
100
AcDbEntity
8
0
100
AcDbCircle
10
-2.0000000000078337
20
1.6790000079692584
30
0
40
0.072500000000000273
210
3.0636491585041939e-48
220
-8.8782141957921297e-65
230
1
0
CIRCLE
5
117
100
AcDbEntity
8
0
100
AcDbCircle
10
1.0000000319064641
20
1.6790000079692584
30
0
40
0.072500000000000092
210
1.0533806817954058e-48
220
-3.0526143297867957e-65
230
1
0
CIRCLE
5
118
100
AcDbEntity
8
0
100
AcDbCircle
10
-7.8337298371679034e-12
20
0.25000000796925853
30
0
40
0.072499999999999981
210
1.5559478009726023e-48
220
-2.4651903288156619e-32
230
1
0
CIRCLE
5
119
100
AcDbEntity
8
0
100
AcDbCircle
10
1.9995186452192946
20
14.249863314548286
30
-6.9935308637805131e-16
40
0.072499999999999926
210
1.6634374686009563e-32
220
2.4651903288156619e-32
230
1
0
CIRCLE
5
120
100
AcDbEntity
8
0
100
AcDbCircle
10
-2.0004814186093012
20
14.249863314548286
30
0
40
0.072499999999999926
210
1.6634374686009563e-32
220
2.4651903288156619e-32
230
1
0
CIRCLE
5
121
100
AcDbEntity
8
0
100
AcDbCircle
10
0.99951864521929468
20
12.820863314548285
30
0
40
0.072500000000000092
210
1.6634374686009574e-32
220
1.5550722819870136e-48
230
1
0
CIRCLE
5
122
100
AcDbEntity
8
0
100
AcDbCircle
10
-0.00048135478070528099
20
12.820863314548285
30
0
40
0.072500000000000064
210
4.3084230419312587e-33
220
4.0277493912749645e-49
230
1
0
CIRCLE
5
123
100
AcDbEntity
8
0
100
AcDbCircle
10
-1.0004813866950033
20
14.249863314548286
30
0
40
0.072499999999999926
210
1.6634374686009565e-32
220
2.4651903288156619e-32
230
1
0
CIRCLE
5
124
100
AcDbEntity
8
0
100
AcDbCircle
10
0.99951864521929445
20
14.249863314548286
30
0
40
0.072499999999999926
210
1.6634374686009565e-32
220
2.4651903288156619e-32
230
1
0
CIRCLE
5
125
100
AcDbEntity
8
0
100
AcDbCircle
10
-2.0004814186093007
20
12.820863314548285
30
0
40
0.072500000000000273
210
1.6634374686009574e-32
220
1.5550722819870136e-48
230
1
0
CIRCLE
5
126
100
AcDbEntity
8
0
100
AcDbCircle
10
1.999518645219295
20
12.820863314548285
30
0
40
0.072500000000000273
210
1.6634374686009574e-32
220
1.5550722819870136e-48
230
1
0
CIRCLE
5
127
100
AcDbEntity
8
0
100
AcDbCircle
10
-1.0004813866950031
20
12.820863314548285
30
0
40
0.072500000000000092
210
1.6634374686009574e-32
220
1.5550722819870136e-48
230
1
0
CIRCLE
5
128
100
AcDbEntity
8
0
100
AcDbCircle
10
-0.00048135478070541451
20
14.249863314548286
30
0
40
0.072499999999999981
210
2.8960326330087891e-32
220
-2.4651903288156616e-32
230
1
0
LWPOLYLINE
5
129
100
AcDbEntity
8
0
100
AcDbPolyline
90
4
70
1
43
0.0
10
1.1000000510550427
20
7.7050002313693442
42
0.99999999999999989
10
1.1000000510550414
20
6.7950002313693449
10
1.6000000510550412
20
6.7950002313693449
42
0.99999999999999989
10
1.6000000510550429
20
7.7050002313693442
0
LWPOLYLINE
5
130
100
AcDbEntity
8
0
100
AcDbPolyline
90
4
70
1
43
0.0
10
2.2652362204646059
20
7.8003858267623292
10
1.7652362204646053
20
7.8003858267623301
42
-0.99999999999999989
10
1.7652362204646059
20
7.9203858267623302
10
2.2652362204646073
20
7.9203858267623319
42
-0.99999999999999989
0
LWPOLYLINE
5
131
100
AcDbEntity
8
0
100
AcDbPolyline
90
4
70
1
43
0.0
10
0.54523622046460585
20
7.9203858267623302
42
0.99999999999999989
10
0.5452362204646054
20
7.8003858267623301
10
1.0452362204646057
20
7.8003858267623301
42
0.99999999999999989
10
1.0452362204646057
20
7.9203858267623319
0
LWPOLYLINE
5
132
100
AcDbEntity
8
0
100
AcDbPolyline
90
4
70
1
43
0.0
10
1.7652362204646059
20
6.7003858267623313
42
0.99999999999999989
10
1.7652362204646093
20
6.5803858267623285
10
2.2652362204646059
20
6.5803858267623285
42
0.99999999999999989
10
2.2652362204646059
20
6.7003858267623304
0
LWPOLYLINE
5
133
100
AcDbEntity
8
0
100
AcDbPolyline
90
4
70
1
43
0.0
10
0.54523622046460574
20
6.7003858267623304
42
0.99999999999999989
10
0.5452362204646054
20
6.5803858267623303
10
1.0452362204646057
20
6.5803858267623285
42
0.99999999999999989
10
1.0452362204646057
20
6.7003858267623304
0
CIRCLE
5
134
100
AcDbEntity
8
0
100
AcDbCircle
10
-7.8330441433213372e-12
20
4.4495905112787355
30
0
40
0.069999999999999882
210
-9.9360682471172065e-50
220
-2.4651903288156619e-32
230
1
0
CIRCLE
5
135
100
AcDbEntity
8
0
100
AcDbCircle
10
1.6460394391062256
20
4.9844211458230596
30
0
40
0.069999999999999882
210
3.0912903490899847e-31
220
2.2459539050264119e-31
230
1
0
CIRCLE
5
136
100
AcDbEntity
8
0
100
AcDbCircle
10
2.6633477593015282
20
6.3846259252847739
30
0
40
0.069999999999999882
210
-3.4576247809823771e-32
220
-6.6527131253973799e-32
230
1
0
CIRCLE
5
137
100
AcDbEntity
8
0
100
AcDbCircle
10
-7.8336536869047143e-12
20
10.050409629125587
30
0
40
0.069999999999999882
210
3.2669431890302944e-32
220
-2.4651903288156624e-32
230
1
0
CIRCLE
5
138
100
AcDbEntity
8
0
100
AcDbCircle
10
-1.6460394391218935
20
9.5155789945812632
30
0
40
0.069999999999999882
210
3.0912903490899847e-31
220
2.2459539050264119e-31
230
1
0
CIRCLE
5
139
100
AcDbEntity
8
0
100
AcDbCircle
10
-2.6633477593171939
20
8.1153742151195516
30
0
40
0.069999999999999882
210
5.9178208209513595e-34
220
-7.7953916843565863e-32
230
1
0
ENDSEC
0
SECTION
2
OBJECTS
0
DICTIONARY
5
C
100
AcDbDictionary
3
ACAD_GROUP
350
D
3
ACAD_MLINESTYLE
350
17
0
DICTIONARY
5
D
100
AcDbDictionary
0
DICTIONARY
5
1A
330
C
100
AcDbDictionary
0
DICTIONARY
5
17
100
AcDbDictionary
0
ENDSEC
0
EOF
